<svg width="56" height="56" viewBox="0 0 56 56" fill="none" xmlns="http://www.w3.org/2000/svg">
<path d="M0 16.8C0 7.52162 7.52162 0 16.8 0H39.2C48.4784 0 56 7.52162 56 16.8V39.2C56 48.4784 48.4784 56 39.2 56H16.8C7.52162 56 0 48.4784 0 39.2V16.8Z" fill="#143A79"/>
<path d="M25.2 19.5999C25.2 20.6247 24.9242 21.5865 24.444 22.4139L28 26.0189L37.4192 16.5997C37.9443 16.0748 38.6564 15.7799 39.3988 15.7799C40.1413 15.7799 40.8533 16.0748 41.3784 16.5997L24.4244 33.5537C25.1167 34.7279 25.357 36.1142 25.1003 37.4528C24.8436 38.7914 24.1074 39.9905 23.0299 40.8252C21.9523 41.6599 20.6074 42.0729 19.247 41.9869C17.8867 41.9008 16.6045 41.3216 15.6407 40.3578C14.6769 39.394 14.0977 38.1118 14.0117 36.7515C13.9256 35.3912 14.3387 34.0462 15.1734 32.9687C16.0081 31.8911 17.2071 31.155 18.5458 30.8983C19.8844 30.6415 21.2707 30.8818 22.4448 31.5741L26.0204 27.9999L22.4448 24.4243C21.3811 25.0517 20.1398 25.3098 18.9142 25.1586C17.6885 25.0073 16.5473 24.4552 15.668 23.5881C14.7886 22.721 14.2206 21.5875 14.0523 20.3641C13.8839 19.1407 14.1247 17.896 14.7372 16.8236C15.3496 15.7512 16.2993 14.9113 17.4386 14.4347C18.5778 13.958 19.8427 13.8713 21.0363 14.1881C22.2299 14.5048 23.2854 15.2072 24.0384 16.186C24.7915 17.1648 25.1998 18.365 25.2 19.5999ZM22.4 19.5999C22.4 18.8573 22.105 18.1451 21.5799 17.62C21.0548 17.0949 20.3426 16.7999 19.6 16.7999C18.8574 16.7999 18.1452 17.0949 17.6201 17.62C17.095 18.1451 16.8 18.8573 16.8 19.5999C16.8 20.3425 17.095 21.0547 17.6201 21.5798C18.1452 22.1049 18.8574 22.3999 19.6 22.3999C20.3426 22.3999 21.0548 22.1049 21.5799 21.5798C22.105 21.0547 22.4 20.3425 22.4 19.5999ZM41.3784 39.3987C40.8533 39.9237 40.1413 40.2185 39.3988 40.2185C38.6564 40.2185 37.9443 39.9237 37.4192 39.3987L29.9754 31.9563L31.9564 29.9753L41.3784 39.3987ZM33.6 26.5999H36.4V29.3999H33.6V26.5999ZM39.2 26.5999H42V29.3999H39.2V26.5999ZM19.6 26.5999H22.4V29.3999H19.6V26.5999ZM14 26.5999H16.8V29.3999H14V26.5999ZM19.6 39.1999C20.3426 39.1999 21.0548 38.9049 21.5799 38.3798C22.105 37.8547 22.4 37.1425 22.4 36.3999C22.4 35.6573 22.105 34.9451 21.5799 34.42C21.0548 33.8949 20.3426 33.5999 19.6 33.5999C18.8574 33.5999 18.1452 33.8949 17.6201 34.42C17.095 34.9451 16.8 35.6573 16.8 36.3999C16.8 37.1425 17.095 37.8547 17.6201 38.3798C18.1452 38.9049 18.8574 39.1999 19.6 39.1999Z" fill="white"/>
</svg>
