<svg width="32" height="32" viewBox="0 0 32 32" fill="none" xmlns="http://www.w3.org/2000/svg">
<g clip-path="url(#clip0_2081_5450)">
<path d="M9.33333 10.6666V7.99992C9.33333 6.23181 10.0357 4.53612 11.286 3.28587C12.5362 2.03563 14.2319 1.33325 16 1.33325C17.7681 1.33325 19.4638 2.03563 20.714 3.28587C21.9643 4.53612 22.6667 6.23181 22.6667 7.99992V10.6666H26.6667C27.0203 10.6666 27.3594 10.8071 27.6095 11.0571C27.8595 11.3072 28 11.6463 28 11.9999V27.9999C28 28.3535 27.8595 28.6927 27.6095 28.9427C27.3594 29.1928 27.0203 29.3333 26.6667 29.3333H5.33333C4.97971 29.3333 4.64057 29.1928 4.39052 28.9427C4.14048 28.6927 4 28.3535 4 27.9999V11.9999C4 11.6463 4.14048 11.3072 4.39052 11.0571C4.64057 10.8071 4.97971 10.6666 5.33333 10.6666H9.33333ZM9.33333 13.3333H6.66667V26.6666H25.3333V13.3333H22.6667V15.9999H20V13.3333H12V15.9999H9.33333V13.3333ZM12 10.6666H20V7.99992C20 6.93905 19.5786 5.92164 18.8284 5.17149C18.0783 4.42135 17.0609 3.99992 16 3.99992C14.9391 3.99992 13.9217 4.42135 13.1716 5.17149C12.4214 5.92164 12 6.93905 12 7.99992V10.6666Z" fill="black"/>
</g>
<defs>
<clipPath id="clip0_2081_5450">
<rect width="32" height="32" fill="white"/>
</clipPath>
</defs>
</svg>
