<svg width="16" height="16" viewBox="0 0 16 16" fill="none" xmlns="http://www.w3.org/2000/svg">
<g clip-path="url(#clip0_2081_4960)">
<path d="M2.00065 2H14.0007C14.1775 2 14.347 2.07024 14.4721 2.19526C14.5971 2.32029 14.6673 2.48986 14.6673 2.66667V13.3333C14.6673 13.5101 14.5971 13.6797 14.4721 13.8047C14.347 13.9298 14.1775 14 14.0007 14H2.00065C1.82384 14 1.65427 13.9298 1.52925 13.8047C1.40422 13.6797 1.33398 13.5101 1.33398 13.3333V2.66667C1.33398 2.48986 1.40422 2.32029 1.52925 2.19526C1.65427 2.07024 1.82384 2 2.00065 2ZM8.04065 7.78867L3.76598 4.15867L2.90265 5.17467L8.04932 9.54467L13.1033 5.17133L12.2313 4.16267L8.04132 7.78867H8.04065Z" fill="white"/>
</g>
<defs>
<clipPath id="clip0_2081_4960">
<rect width="16" height="16" fill="white"/>
</clipPath>
</defs>
</svg>
