<svg width="32" height="32" viewBox="0 0 32 32" fill="none" xmlns="http://www.w3.org/2000/svg">
<g clip-path="url(#clip0_2081_5446)">
<path d="M24.0407 22.1561L29.7513 27.8654L27.8647 29.7521L22.1553 24.0414C20.031 25.7444 17.3887 26.6706 14.666 26.6667C8.04202 26.6667 2.66602 21.2907 2.66602 14.6667C2.66602 8.04275 8.04202 2.66675 14.666 2.66675C21.29 2.66675 26.666 8.04275 26.666 14.6667C26.6699 17.3894 25.7436 20.0317 24.0407 22.1561ZM21.366 21.1667C23.0582 19.4266 24.0032 17.094 23.9993 14.6667C23.9993 9.50941 19.822 5.33341 14.666 5.33341C9.50868 5.33341 5.33268 9.50941 5.33268 14.6667C5.33268 19.8227 9.50868 24.0001 14.666 24.0001C17.0933 24.0039 19.4259 23.0589 21.166 21.3667L21.366 21.1667Z" fill="black"/>
</g>
<defs>
<clipPath id="clip0_2081_5446">
<rect width="32" height="32" fill="white"/>
</clipPath>
</defs>
</svg>
