<svg width="32" height="32" viewBox="0 0 32 32" fill="none" xmlns="http://www.w3.org/2000/svg">
<g clip-path="url(#clip0_2081_5449)">
<path d="M5.33398 29.3333C5.33398 26.5043 6.45779 23.7912 8.45818 21.7908C10.4586 19.7904 13.1717 18.6666 16.0007 18.6666C18.8296 18.6666 21.5427 19.7904 23.5431 21.7908C25.5435 23.7912 26.6673 26.5043 26.6673 29.3333H24.0006C24.0006 27.2115 23.1578 25.1767 21.6575 23.6764C20.1572 22.1761 18.1224 21.3333 16.0007 21.3333C13.8789 21.3333 11.8441 22.1761 10.3438 23.6764C8.84351 25.1767 8.00065 27.2115 8.00065 29.3333H5.33398ZM16.0007 17.3333C11.5807 17.3333 8.00065 13.7533 8.00065 9.33325C8.00065 4.91325 11.5807 1.33325 16.0007 1.33325C20.4207 1.33325 24.0006 4.91325 24.0006 9.33325C24.0006 13.7533 20.4207 17.3333 16.0007 17.3333ZM16.0007 14.6666C18.9473 14.6666 21.334 12.2799 21.334 9.33325C21.334 6.38659 18.9473 3.99992 16.0007 3.99992C13.054 3.99992 10.6673 6.38659 10.6673 9.33325C10.6673 12.2799 13.054 14.6666 16.0007 14.6666Z" fill="black"/>
</g>
<defs>
<clipPath id="clip0_2081_5449">
<rect width="32" height="32" fill="white"/>
</clipPath>
</defs>
</svg>
