<svg width="232" height="40" viewBox="0 0 232 40" fill="none" xmlns="http://www.w3.org/2000/svg">
<path d="M36.1349 32.7528V32.82H36.1975C36.2093 32.8201 36.2209 32.8172 36.2311 32.8114C36.2352 32.8085 36.2385 32.8046 36.2407 32.8001C36.2429 32.7957 36.2439 32.7907 36.2437 32.7857C36.2439 32.7808 36.2429 32.7759 36.2407 32.7715C36.2385 32.7672 36.2352 32.7634 36.2311 32.7607C36.221 32.7546 36.2093 32.7516 36.1975 32.7521H36.1349V32.7528ZM36.1982 32.7052C36.2251 32.7036 36.2516 32.7113 36.2734 32.7271C36.2822 32.7342 36.2891 32.7433 36.2937 32.7537C36.2983 32.764 36.3004 32.7753 36.2998 32.7865C36.3002 32.7962 36.2985 32.8059 36.2949 32.8149C36.2912 32.8239 36.2857 32.8321 36.2787 32.8388C36.2618 32.8534 36.2407 32.8622 36.2185 32.8638L36.3025 32.9595H36.2378L36.1606 32.8645H36.1356V32.9595H36.0815V32.7054H36.199L36.1982 32.7052ZM36.1814 33.0472C36.2098 33.0475 36.2379 33.0417 36.2639 33.0304C36.2889 33.0196 36.3117 33.0042 36.3311 32.9849C36.3504 32.9656 36.3659 32.9428 36.3766 32.9177C36.3986 32.8645 36.3986 32.8047 36.3766 32.7514C36.3657 32.7264 36.3503 32.7036 36.3311 32.6842C36.3117 32.665 36.2889 32.6495 36.2639 32.6387C36.2377 32.628 36.2097 32.6226 36.1814 32.6229C36.1527 32.6227 36.1241 32.628 36.0974 32.6387C36.0718 32.6493 36.0485 32.6648 36.0287 32.6842C35.999 32.7147 35.9789 32.7533 35.971 32.7951C35.963 32.8369 35.9675 32.8801 35.9839 32.9194C35.9941 32.9446 36.0094 32.9674 36.0287 32.9866C36.0485 33.006 36.0718 33.0215 36.0974 33.0321C36.124 33.0434 36.1526 33.0491 36.1814 33.0489V33.0472ZM36.1814 32.5618C36.2552 32.5617 36.3261 32.5907 36.3788 32.6424C36.4041 32.6673 36.4243 32.6969 36.4382 32.7296C36.4526 32.7632 36.46 32.7993 36.46 32.8358C36.46 32.8723 36.4526 32.9085 36.4382 32.9421C36.424 32.9746 36.4039 33.0041 36.3788 33.0292C36.353 33.0539 36.323 33.0738 36.2902 33.088C36.2558 33.1026 36.2188 33.1101 36.1814 33.1098C36.1436 33.1101 36.1061 33.1027 36.0712 33.088C36.0381 33.0742 36.0078 33.0542 35.982 33.0292C35.9569 33.0032 35.9371 32.9727 35.9234 32.9392C35.9091 32.9056 35.9017 32.8695 35.9017 32.833C35.9017 32.7965 35.9091 32.7603 35.9234 32.7267C35.9373 32.694 35.9575 32.6644 35.9829 32.6396C36.0083 32.6141 36.0387 32.5941 36.0721 32.5808C36.1069 32.5661 36.1444 32.5587 36.1823 32.559L36.1814 32.5618ZM10.4643 31.5805C10.4643 31.0959 10.7817 30.6979 11.3005 30.6979C11.7963 30.6979 12.1309 31.0788 12.1309 31.5805C12.1309 32.0821 11.7963 32.4631 11.3005 32.4631C10.7817 32.4631 10.4643 32.065 10.4643 31.5805ZM12.6961 31.5805V30.2015H12.0966V30.5375C11.9065 30.2892 11.6181 30.1335 11.226 30.1335C10.4534 30.1335 9.84705 30.7395 9.84705 31.5811C9.84705 32.4227 10.453 33.0287 11.226 33.0287C11.618 33.0287 11.9065 32.8729 12.0966 32.6248V32.9595H12.6954V31.5805H12.6961ZM32.95 31.5805C32.95 31.0959 33.2674 30.6979 33.7864 30.6979C34.2827 30.6979 34.6167 31.0788 34.6167 31.5805C34.6167 32.0821 34.2827 32.4631 33.7864 32.4631C33.2676 32.4631 32.95 32.065 32.95 31.5805ZM35.1824 31.5805V29.0947H34.5825V30.5375C34.3924 30.2892 34.104 30.1335 33.7118 30.1335C32.9392 30.1335 32.3329 30.7395 32.3329 31.5811C32.3329 32.4227 32.9389 33.0287 33.7118 33.0287C34.104 33.0287 34.3924 32.8729 34.5825 32.6248V32.9595H35.1824V31.5805ZM20.1357 30.6695C20.522 30.6695 20.7701 30.9117 20.8334 31.3381H19.4031C19.4671 30.94 19.7088 30.6695 20.1359 30.6695H20.1357ZM20.1478 30.132C19.34 30.132 18.7748 30.7199 18.7748 31.5796C18.7748 32.4562 19.3627 33.0272 20.188 33.0272C20.6032 33.0272 20.9834 32.9236 21.318 32.6409L21.0242 32.1967C20.7931 32.3814 20.4989 32.4851 20.2222 32.4851C19.836 32.4851 19.4843 32.3062 19.3978 31.8099H21.4446C21.4505 31.7353 21.4565 31.6601 21.4565 31.5794C21.4505 30.72 20.9191 30.1318 20.1475 30.1318L20.1478 30.132ZM27.3846 31.5794C27.3846 31.0949 27.7021 30.6968 28.2209 30.6968C28.7167 30.6968 29.0513 31.0778 29.0513 31.5794C29.0513 32.0811 28.7167 32.462 28.2209 32.462C27.7021 32.462 27.3845 32.064 27.3845 31.5794H27.3846ZM29.6163 31.5794V30.2015H29.0172V30.5375C28.8264 30.2892 28.5387 30.1335 28.1465 30.1335C27.3739 30.1335 26.7676 30.7395 26.7676 31.5811C26.7676 32.4227 27.3736 33.0287 28.1465 33.0287C28.5387 33.0287 28.8264 32.8729 29.0172 32.6248V32.9595H29.6164V31.5805L29.6163 31.5794ZM23.9995 31.5794C23.9995 32.4157 24.5817 33.027 25.4701 33.027C25.8853 33.027 26.1619 32.9347 26.4611 32.6984L26.1732 32.2138C25.9481 32.3755 25.7118 32.462 25.451 32.462C24.9725 32.4562 24.6206 32.1102 24.6206 31.5794C24.6206 31.0487 24.9725 30.7029 25.451 30.6968C25.7112 30.6968 25.9475 30.7833 26.1732 30.9451L26.4611 30.4605C26.1614 30.2242 25.8848 30.1318 25.4701 30.1318C24.5817 30.1318 23.9995 30.743 23.9995 31.5794ZM31.7271 30.1318C31.3813 30.1318 31.1561 30.2936 31.0004 30.5358V30.2015H30.4063V32.958H31.0064V31.4128C31.0064 30.9567 31.2024 30.7032 31.5942 30.7032C31.7226 30.7014 31.85 30.7249 31.9691 30.7726L32.1539 30.2076C32.0212 30.1554 31.8482 30.1323 31.7268 30.1323L31.7271 30.1318ZM15.6596 30.4207C15.3712 30.2306 14.9738 30.1323 14.5355 30.1323C13.8371 30.1323 13.3875 30.4671 13.3875 31.0148C13.3875 31.4642 13.7223 31.7415 14.3386 31.828L14.6218 31.8683C14.9505 31.9145 15.1057 32.001 15.1057 32.1567C15.1057 32.3698 14.8874 32.4914 14.4774 32.4914C14.0622 32.4914 13.7626 32.3588 13.5605 32.2031L13.2789 32.6705C13.6075 32.9127 14.0227 33.0282 14.4723 33.0282C15.2684 33.0282 15.7298 32.6533 15.7298 32.1285C15.7298 31.6439 15.3667 31.3905 14.7668 31.304L14.4843 31.263C14.2248 31.2294 14.0168 31.1772 14.0168 30.9924C14.0168 30.7909 14.2128 30.6696 14.5417 30.6696C14.8936 30.6696 15.2342 30.8023 15.4011 30.9059L15.6606 30.4214L15.6596 30.4207ZM23.3941 30.1329C23.0482 30.1329 22.823 30.2946 22.668 30.5368V30.2015H22.0739V32.958H22.6734V31.4128C22.6734 30.9567 22.8694 30.7032 23.2612 30.7032C23.3895 30.7014 23.5169 30.7249 23.6361 30.7726L23.8208 30.2076C23.6881 30.1554 23.5152 30.1323 23.3937 30.1323L23.3941 30.1329ZM18.2788 30.2015H17.2987V29.3653H16.6927V30.2015H16.1336V30.7494H16.6927V32.0069C16.6927 32.6465 16.9409 33.0274 17.65 33.0274C17.9102 33.0274 18.2098 32.9468 18.3999 32.8142L18.2268 32.301C18.0479 32.4046 17.8519 32.4568 17.696 32.4568C17.3964 32.4568 17.2987 32.2721 17.2987 31.9955V30.7499H18.2788V30.2015ZM9.31699 32.9587V31.2288C9.31699 30.5773 8.90181 30.1389 8.23251 30.133C7.88065 30.1271 7.5177 30.2366 7.26358 30.6234C7.07346 30.3178 6.77383 30.133 6.3526 30.133C6.05818 30.133 5.77047 30.2195 5.54524 30.5423V30.2015H4.94531V32.958H5.54995V31.4296C5.54995 30.9511 5.81531 30.6968 6.22512 30.6968C6.62317 30.6968 6.82455 30.9563 6.82455 31.4236V32.9577H7.43053V31.4293C7.43053 30.9508 7.70715 30.6965 8.10503 30.6965C8.51434 30.6965 8.70967 30.956 8.70967 31.4232V32.9573L9.31699 32.9587Z" fill="#231F20"/>
<path d="M36.4764 23.7893V23.3862H36.3715L36.25 23.6628L36.1293 23.3862H36.024V23.7893H36.0985V23.4857L36.2121 23.7477H36.2893L36.4029 23.485V23.7893H36.4768H36.4764ZM35.8105 23.7893V23.4553H35.9449V23.3872H35.6016V23.4553H35.7359V23.7893H35.8098H35.8105Z" fill="#F79410"/>
<path d="M24.5449 25.518H15.4609V9.19287H24.5451L24.5449 25.518Z" fill="#FF5F00"/>
<path d="M16.0368 17.3558C16.0368 14.0443 17.5873 11.0943 20.0018 9.19325C18.1742 7.75211 15.9136 6.96996 13.5862 6.9734C7.8527 6.9734 3.20508 11.6217 3.20508 17.3558C3.20508 23.0899 7.8527 27.7382 13.5862 27.7382C15.9137 27.7417 18.1743 26.9596 20.002 25.5184C17.5877 23.6176 16.0368 20.6675 16.0368 17.3558Z" fill="#EB001B"/>
<path d="M36.7997 17.3558C36.7997 23.0899 32.1521 27.7382 26.4186 27.7382C24.0909 27.7416 21.83 26.9595 20.002 25.5184C22.4171 23.6173 23.9677 20.6675 23.9677 17.3558C23.9677 14.0441 22.4171 11.0943 20.002 9.19325C21.83 7.75216 24.0907 6.97002 26.4185 6.9734C32.1519 6.9734 36.7995 11.6217 36.7995 17.3558" fill="#F79E1B"/>
<path fill-rule="evenodd" clip-rule="evenodd" d="M68.4023 30.0457C75.8472 26.8551 86.2933 23.9632 100.128 26.8589L100.273 23.3498C85.6768 21.756 75.2031 26.405 68.4023 29.6998V30.0457Z" fill="#E7A83A"/>
<path fill-rule="evenodd" clip-rule="evenodd" d="M76.1866 20.7928L79.4133 10.1536H82.2924L79.0655 20.7928H76.1866ZM74.8996 10.1565L72.3098 14.6665C71.6505 15.8477 71.2652 16.4443 71.0799 17.1907H71.0404C71.0863 16.2444 70.9543 15.0828 70.9419 14.4262L70.6559 10.1565H65.8096L65.7598 10.4427C67.0049 10.4427 67.7432 11.0681 67.9464 12.3475L68.891 20.7928H71.8736L77.9044 10.1565H74.8996ZM97.2887 20.7928L97.2093 19.2105L93.6143 19.2075L92.879 20.7926H89.7534L95.4209 10.1738H99.2575L100.217 20.7926H97.2887V20.7928ZM96.9586 14.5171C96.9266 13.7308 96.8999 12.6635 96.9534 12.0177H96.9109C96.7357 12.5459 95.9831 14.1319 95.6521 14.912L94.5809 17.244H97.1051L96.9586 14.5171ZM85.3148 21.0951C83.2822 21.0951 81.9334 20.4504 80.9703 19.8755L82.3418 17.7811C83.2063 18.2646 83.8851 18.8226 85.4468 18.8226C85.949 18.8226 86.4329 18.6921 86.7077 18.2162C87.1082 17.5242 86.6154 17.1519 85.4906 16.5152L84.9353 16.1542C83.2681 15.0149 82.547 13.9329 83.3318 12.0441C83.834 10.8359 85.1586 9.92017 87.3437 9.92017C88.8507 9.92017 90.2635 10.572 91.0867 11.2088L89.51 13.058C88.7067 12.4083 88.0408 12.0796 87.2788 12.0796C86.6712 12.0796 86.2097 12.3139 86.0503 12.6299C85.7504 13.224 86.1472 13.6291 87.0233 14.173L87.6836 14.593C89.7078 15.8697 90.19 17.2083 89.6827 18.4599C88.8103 20.6141 87.102 21.0951 85.3148 21.0951ZM101.005 11.7992H100.815V10.6458H101.253C101.531 10.6458 101.673 10.7434 101.673 10.9775C101.673 11.1862 101.545 11.2725 101.372 11.2921L101.695 11.7992H101.481L101.183 11.3062H101.005V11.7992ZM101.216 11.1445C101.359 11.1445 101.484 11.1306 101.484 10.9633C101.484 10.8241 101.347 10.8073 101.233 10.8073H101.005V11.1445H101.216ZM101.211 12.245C100.612 12.245 100.186 11.7965 100.186 11.203C100.186 10.5761 100.659 10.1611 101.211 10.1611C101.757 10.1611 102.23 10.5761 102.23 11.203C102.23 11.8297 101.757 12.245 101.211 12.245ZM101.211 10.3423C100.759 10.3423 100.409 10.6959 100.409 11.203C100.409 11.6766 100.715 12.0638 101.211 12.0638C101.656 12.0638 102.007 11.7129 102.007 11.203C102.007 10.6959 101.656 10.3423 101.211 10.3423Z" fill="#1D5B99"/>
<path fill-rule="evenodd" clip-rule="evenodd" d="M133.366 33.3629H133.275C133.275 33.3177 133.253 33.2497 133.253 33.2268C133.253 33.2043 133.253 33.1591 133.185 33.1591H133.049V33.3629H132.981V32.887H133.185C133.275 32.887 133.343 32.9099 133.343 33.0002C133.343 33.0683 133.321 33.0911 133.298 33.1135C133.321 33.1363 133.343 33.159 133.343 33.2043V33.2949C133.343 33.3177 133.343 33.3177 133.366 33.3177V33.3629ZM133.275 33.0231C133.275 32.955 133.23 32.955 133.207 32.955H133.049V33.0911H133.185C133.23 33.0911 133.275 33.0683 133.275 33.0231ZM133.661 33.1136C133.661 32.8418 133.434 32.6149 133.139 32.6149C132.867 32.6149 132.641 32.8418 132.641 33.1136C132.641 33.4083 132.867 33.6352 133.139 33.6352C133.434 33.635 133.661 33.4083 133.661 33.1136ZM133.593 33.1136C133.593 33.3631 133.389 33.5443 133.139 33.5443C132.89 33.5443 132.709 33.3629 132.709 33.1136C132.709 32.887 132.89 32.6829 133.139 32.6829C133.389 32.6829 133.593 32.887 133.593 33.1136ZM161.521 23.9556C161.521 24.6357 161.09 24.9527 160.319 24.9527H158.846V24.2726H160.319C160.455 24.2726 160.568 24.2501 160.614 24.2049C160.659 24.1593 160.705 24.0913 160.705 24.0008C160.705 23.9099 160.659 23.8194 160.614 23.7742C160.568 23.7286 160.478 23.7061 160.342 23.7061C159.639 23.6833 158.755 23.7286 158.755 22.7314C158.755 22.2778 159.05 21.7791 159.843 21.7791H161.362V22.4592H159.956C159.821 22.4592 159.73 22.4592 159.662 22.5044C159.594 22.5725 159.548 22.6405 159.548 22.7539C159.548 22.8673 159.617 22.9353 159.707 22.9808C159.798 23.0033 159.889 23.026 160.002 23.026H160.41C160.841 23.026 161.113 23.1165 161.294 23.2754C161.43 23.434 161.521 23.6383 161.521 23.9556ZM158.324 23.2754C158.143 23.1165 157.871 23.026 157.44 23.026H157.032C156.919 23.026 156.828 23.0031 156.738 22.9808C156.647 22.9353 156.579 22.8673 156.579 22.7539C156.579 22.6405 156.601 22.5725 156.692 22.5044C156.76 22.4592 156.851 22.4592 156.987 22.4592H158.392V21.7791H156.874C156.057 21.7791 155.785 22.2778 155.785 22.7314C155.785 23.7285 156.669 23.6833 157.372 23.7061C157.508 23.7061 157.599 23.7286 157.644 23.7742C157.689 23.8194 157.735 23.9099 157.735 24.0008C157.735 24.0913 157.689 24.1593 157.644 24.2049C157.576 24.2501 157.486 24.2726 157.349 24.2726H155.876V24.9527H157.349C158.12 24.9527 158.551 24.6356 158.551 23.9556C158.551 23.6383 158.46 23.434 158.324 23.2754ZM155.423 24.2956H153.632V23.6608H155.377V23.0263H153.632V22.4367H155.423V21.7794H152.884V24.9529H155.423V24.2956ZM152.068 21.9382C151.818 21.8021 151.524 21.7792 151.138 21.7792H149.393V24.9527H150.164V23.7967H150.98C151.252 23.7967 151.41 23.8195 151.524 23.9327C151.66 24.0913 151.66 24.3634 151.66 24.5675V24.9527H152.408V24.3406C152.408 24.046 152.385 23.9099 152.294 23.7513C152.226 23.6605 152.091 23.5472 151.909 23.4792C152.113 23.4115 152.453 23.1394 152.453 22.6405C152.453 22.278 152.317 22.0739 152.068 21.9382ZM147.761 21.7792H145.335L144.36 22.8221L143.431 21.7792H140.371V24.9527H143.386L144.361 23.9099L145.29 24.9527H146.763V23.8876H147.716C148.373 23.8876 149.03 23.7061 149.03 22.8221C149.03 21.9607 148.35 21.7792 147.761 21.7792ZM151.456 23.0942C151.342 23.1394 151.229 23.1394 151.093 23.1394L150.164 23.1622V22.4366H151.093C151.229 22.4366 151.365 22.4366 151.456 22.5046C151.546 22.5501 151.614 22.6406 151.614 22.7767C151.614 22.9128 151.546 23.0262 151.456 23.0942ZM147.761 23.2528H146.763V22.4366H147.761C148.033 22.4366 148.214 22.5501 148.214 22.8221C148.214 23.0942 148.033 23.2528 147.761 23.2528ZM144.836 23.366L146.015 22.1194V24.6809L144.836 23.366ZM143 24.2956H141.119V23.6608H142.796V23.0263H141.119V22.4367H143.023L143.862 23.3661L143 24.2956ZM159.412 19.4897H158.324L156.896 17.1094V19.4897H155.355L155.06 18.7869H153.473L153.179 19.4897H152.294C151.932 19.4897 151.456 19.399 151.184 19.1269C150.934 18.8549 150.798 18.4922 150.798 17.9255C150.798 17.4494 150.866 17.0187 151.206 16.6787C151.433 16.4293 151.841 16.3161 152.362 16.3161H153.088V16.9962H152.362C152.09 16.9962 151.931 17.0416 151.773 17.1776C151.637 17.3137 151.569 17.563 151.569 17.903C151.569 18.243 151.637 18.4924 151.773 18.6511C151.886 18.7644 152.09 18.8097 152.294 18.8097H152.634L153.722 16.3162H154.856L156.125 19.3084V16.3161H157.304L158.642 18.5149V16.3161H159.412V19.4897H159.412ZM150.413 16.3161H149.642V19.4897H150.413V16.3161ZM148.803 16.4521C148.554 16.3161 148.282 16.3161 147.897 16.3161H146.151V19.4897H146.899V18.3335H147.715C147.987 18.3335 148.169 18.3562 148.282 18.4696C148.418 18.6283 148.395 18.9004 148.395 19.0817V19.4897H149.166V18.8549C149.166 18.5829 149.143 18.4469 149.03 18.2881C148.962 18.1974 148.826 18.0841 148.667 18.0162C148.871 17.9255 149.211 17.6762 149.211 17.1775C149.212 16.8148 149.053 16.6107 148.803 16.4521ZM145.607 18.8324H143.839V18.1976H145.584V17.5403H143.839V16.9735H145.607V16.3162H143.068V19.4899H145.607V18.8324ZM142.501 16.3161H141.255L140.325 18.4696L139.328 16.3161H138.104V19.3083L136.812 16.3161H135.678L134.318 19.4897H135.134L135.429 18.7869H137.016L137.31 19.4897H138.852V16.9962L139.962 19.4897H140.62L141.731 16.9962V19.4897H142.501V16.3161H142.501ZM154.788 18.1069L154.267 16.8602L153.745 18.1069H154.788ZM148.214 17.6083C148.101 17.6764 147.988 17.6764 147.829 17.6764H146.899V16.9737H147.829C147.965 16.9737 148.123 16.9737 148.214 17.0191C148.304 17.0871 148.35 17.1778 148.35 17.3137C148.35 17.4496 148.305 17.5628 148.214 17.6083ZM135.701 18.1069L136.222 16.8602L136.744 18.1069H135.701ZM161.339 6.3645H134.295V17.7896L135.225 15.6814H137.197L137.469 16.2029V15.6814H139.781L140.303 16.8148L140.801 15.6814H148.169C148.509 15.6814 148.803 15.7495 149.03 15.9307V15.6814H151.048V15.9307C151.387 15.7493 151.818 15.6814 152.317 15.6814H155.241L155.513 16.2029V15.6814H157.667L157.984 16.2029V15.6814H160.092V20.1245H157.962L157.554 19.4445V20.1245H154.901L154.607 19.3992H153.949L153.654 20.1245H152.272C151.728 20.1245 151.32 19.9884 151.048 19.8525V20.1245H147.761V19.1044C147.761 18.9683 147.738 18.9456 147.647 18.9456H147.534V20.1243H141.187V19.5576L140.96 20.1243H139.623L139.396 19.5802V20.1243H136.834L136.562 19.399H135.905L135.61 20.1243H134.295V33.5216H161.339V25.3834C161.045 25.5195 160.636 25.5875 160.228 25.5875H158.256V25.3154C158.03 25.497 157.621 25.5875 157.236 25.5875H151.025V24.5675C151.025 24.4315 151.002 24.4315 150.889 24.4315H150.776V25.5875H148.735V24.3861C148.396 24.5447 148.01 24.5447 147.67 24.5447H147.443V25.5875H144.95L144.361 24.9074L143.703 25.5875H139.691V21.1446H143.771L144.36 21.8244L144.995 21.1446H147.738C148.055 21.1446 148.577 21.1898 148.803 21.4164V21.1446H151.252C151.501 21.1446 151.977 21.1898 152.294 21.4164V21.1446H155.989V21.4166C156.193 21.2352 156.579 21.1448 156.919 21.1448H158.982V21.4166C159.208 21.258 159.526 21.1448 159.934 21.1448H161.339V6.3645Z" fill="#0077A6"/>
<path d="M230.024 7.20741L220.174 7.20483H220.171C220.164 7.20483 220.156 7.20619 220.149 7.20619C218.796 7.24761 217.11 8.33295 216.804 9.67115L212.146 30.282C211.839 31.6328 212.673 32.7318 214.017 32.752H224.364C225.687 32.6866 226.973 31.6137 227.274 30.2906L231.933 9.67968C232.244 8.31535 231.389 7.20741 230.024 7.20741Z" fill="#01798A"/>
<path d="M212.147 30.282L216.805 9.67115C217.112 8.33295 218.797 7.2476 220.15 7.20618L216.234 7.20375L209.178 7.20239C207.821 7.23014 206.114 8.32307 205.807 9.67129L201.148 30.282C200.84 31.6328 201.676 32.7318 203.018 32.752H214.018C212.675 32.7318 211.84 31.6328 212.147 30.282Z" fill="#024381"/>
<path d="M201.147 30.282L205.807 9.67114C206.113 8.32293 207.821 7.23 209.177 7.20225L200.139 7.19995C198.774 7.19995 197.025 8.30546 196.713 9.67114L192.053 30.282C192.025 30.4077 192.009 30.531 192 30.6515V31.0338C192.091 32.0184 192.843 32.7354 193.924 32.7518H203.018C201.675 32.7318 200.839 31.6328 201.147 30.282Z" fill="#DD0228"/>
<path d="M209.368 22.2208H209.539C209.696 22.2208 209.802 22.1679 209.852 22.0635L210.296 21.3984H211.486L211.238 21.8359H212.665L212.484 22.5063H210.786C210.59 22.8006 210.35 22.9388 210.06 22.9224H209.176L209.368 22.2208ZM209.172 23.1815H212.299L212.1 23.9098H210.842L210.651 24.6126H211.874L211.675 25.3408H210.451L210.167 26.3795C210.097 26.5531 210.189 26.6311 210.443 26.6135H211.44L211.256 27.2903H209.341C208.978 27.2903 208.854 27.0827 208.967 26.6664L209.331 25.3409H208.549L208.747 24.6127H209.53L209.721 23.9099H208.974L209.172 23.1815ZM214.163 21.3932L214.114 21.8196C214.114 21.8196 214.704 21.3768 215.24 21.3768H217.219L216.462 24.1171C216.399 24.4304 216.13 24.5862 215.655 24.5862H213.411L212.885 26.5104C212.855 26.6135 212.898 26.6663 213.011 26.6663H213.453L213.29 27.2636H212.168C211.737 27.2636 211.558 27.1341 211.629 26.8738L213.114 21.3932H214.163ZM215.84 22.1679H214.073L213.861 22.9074C213.861 22.9074 214.156 22.695 214.647 22.6874C215.138 22.6797 215.698 22.6874 215.698 22.6874L215.84 22.1679ZM215.199 23.8832C215.33 23.901 215.403 23.8494 215.412 23.7273L215.52 23.3376H213.751L213.602 23.8832H215.199ZM214.006 24.7686H215.026L215.007 25.2101H215.278C215.416 25.2101 215.484 25.1661 215.484 25.0793L215.564 24.7938H216.412L216.299 25.2101C216.203 25.5571 215.949 25.7382 215.537 25.756H214.993L214.991 26.5104C214.981 26.6312 215.09 26.6928 215.315 26.6928H215.826L215.661 27.2903H214.436C214.092 27.3066 213.924 27.143 213.928 26.796L214.006 24.7686ZM201.646 17.7425C201.508 18.4204 201.187 18.941 200.69 19.3107C200.197 19.6741 199.561 19.8564 198.783 19.8564C198.05 19.8564 197.513 19.6703 197.17 19.2968C196.933 19.0315 196.814 18.6945 196.814 18.287C196.814 18.1185 196.835 17.9374 196.875 17.7426L197.704 13.7436H198.957L198.139 17.6971C198.115 17.7964 198.104 17.8982 198.105 18.0002C198.104 18.2027 198.154 18.3687 198.256 18.4982C198.404 18.6907 198.645 18.7861 198.98 18.7861C199.366 18.7861 199.683 18.6919 199.93 18.5019C200.176 18.3132 200.337 18.0454 200.409 17.697L201.23 13.7432H202.476L201.646 17.7425ZM206.907 16.1691H207.888L207.119 19.7383H206.14L206.907 16.1691ZM207.216 14.8688H208.205L208.02 15.7352H207.031L207.216 14.8688ZM208.756 19.4666C208.499 19.2213 208.37 18.8906 208.369 18.4706C208.369 18.3988 208.373 18.3172 208.383 18.2279C208.392 18.1373 208.404 18.0493 208.421 17.9676C208.537 17.3878 208.785 16.9276 209.167 16.588C209.548 16.2471 210.007 16.0761 210.546 16.0761C210.986 16.0761 211.336 16.1995 211.592 16.4458C211.848 16.6937 211.976 17.028 211.976 17.4532C211.976 17.526 211.971 17.6104 211.961 17.7009C211.95 17.7902 211.936 17.8791 211.92 17.9676C211.806 18.5385 211.559 18.9938 211.178 19.327C210.796 19.6627 210.338 19.8299 209.803 19.8299C209.36 19.83 209.012 19.7093 208.756 19.4666ZM210.626 18.7599C210.799 18.5725 210.922 18.2883 210.998 17.9098C211.009 17.8506 211.019 17.789 211.025 17.7274C211.032 17.6671 211.034 17.6105 211.034 17.5589C211.034 17.3388 210.978 17.1679 210.866 17.0471C210.754 16.9251 210.595 16.8648 210.389 16.8648C210.118 16.8648 209.896 16.9602 209.723 17.1515C209.548 17.3427 209.424 17.6319 209.346 18.0167C209.335 18.0759 209.326 18.135 209.318 18.1928C209.312 18.252 209.31 18.3072 209.311 18.3576C209.311 18.5764 209.367 18.745 209.48 18.8644C209.592 18.9839 209.75 19.0429 209.958 19.0429C210.231 19.0428 210.453 18.9484 210.626 18.7599Z" fill="white"/>
<path d="M220.171 7.20483L216.232 7.20361L220.149 7.20618C220.156 7.20618 220.164 7.20483 220.171 7.20483Z" fill="#E02F41"/>
<path d="M216.234 7.20374L209.232 7.19995C209.214 7.19995 209.196 7.20117 209.178 7.20239L216.234 7.20374Z" fill="#2E4F7D"/>
<path d="M218.341 22.251L218.577 21.4185H219.773L219.722 21.7242C219.722 21.7242 220.333 21.4185 220.773 21.4185H222.252L222.017 22.251H221.784L220.668 26.1774H220.901L220.68 26.957H220.447L220.35 27.2953H219.192L219.289 26.957H217.004L217.226 26.1774H217.455L218.572 22.251H218.341ZM219.631 22.251L219.327 23.3136C219.327 23.3136 219.848 23.1137 220.297 23.0571C220.396 22.6862 220.525 22.251 220.525 22.251H219.631ZM219.186 23.8117L218.88 24.9248C218.88 24.9248 219.458 24.6406 219.854 24.6168C219.968 24.1866 220.082 23.8119 220.082 23.8119H219.186V23.8117ZM219.41 26.1774L219.638 25.3699H218.746L218.516 26.1774H219.41ZM222.302 21.3669H223.427L223.474 21.7818C223.467 21.8874 223.53 21.9379 223.663 21.9379H223.862L223.661 22.6407H222.834C222.519 22.657 222.357 22.5364 222.341 22.276L222.302 21.3669ZM221.973 22.8749H225.615L225.401 23.6295H224.241L224.042 24.3311H225.201L224.986 25.0844H223.696L223.404 25.526H224.035L224.181 26.41C224.198 26.498 224.276 26.5408 224.41 26.5408H224.606L224.4 27.2688H223.706C223.346 27.2865 223.16 27.1658 223.145 26.9055L222.977 26.098L222.403 26.957C222.267 27.1998 222.058 27.3129 221.776 27.2953H220.716L220.922 26.5671H221.253C221.389 26.5671 221.502 26.5068 221.604 26.3847L222.503 25.0844H221.344L221.559 24.3311H222.817L223.016 23.6295H221.758L221.973 22.8749ZM202.8 16.1681H203.685L203.583 16.6837L203.71 16.5365C203.997 16.2296 204.345 16.0775 204.757 16.0775C205.129 16.0775 205.397 16.1856 205.566 16.4032C205.732 16.6207 205.777 16.9213 205.699 17.3074L205.211 19.7396H204.302L204.742 17.5351C204.787 17.3074 204.775 17.1377 204.705 17.0281C204.636 16.9188 204.504 16.8648 204.313 16.8648C204.079 16.8648 203.882 16.9376 203.722 17.0823C203.561 17.2282 203.455 17.4307 203.403 17.6885L202.997 19.7396H202.086L202.8 16.1681ZM212.945 16.1681H213.831L213.73 16.6837L213.856 16.5365C214.143 16.2296 214.493 16.0775 214.903 16.0775C215.275 16.0775 215.544 16.1856 215.711 16.4032C215.876 16.6207 215.924 16.9213 215.843 17.3074L215.358 19.7396H214.447L214.888 17.5351C214.933 17.3074 214.92 17.1377 214.851 17.0281C214.779 16.9188 214.65 16.8648 214.46 16.8648C214.226 16.8648 214.03 16.9376 213.867 17.0823C213.706 17.2282 213.6 17.4307 213.549 17.6885L213.142 19.7396H212.232L212.945 16.1681ZM217.322 13.9546H219.893C220.387 13.9546 220.769 14.0665 221.032 14.2865C221.293 14.5093 221.424 14.8286 221.424 15.2449V15.2575C221.424 15.3366 221.419 15.426 221.412 15.5228C221.399 15.6211 221.382 15.7188 221.361 15.8158C221.248 16.3666 220.985 16.8094 220.579 17.1451C220.172 17.4796 219.689 17.6481 219.133 17.6481H217.755L217.328 19.7395H216.135L217.322 13.9546ZM217.965 16.6422H219.108C219.406 16.6422 219.642 16.5729 219.815 16.4359C219.986 16.2976 220.099 16.0863 220.162 15.7996C220.172 15.7467 220.178 15.6989 220.186 15.6549C220.189 15.6135 220.194 15.5718 220.194 15.5317C220.194 15.3266 220.121 15.1783 219.975 15.0851C219.83 14.9907 219.601 14.9456 219.284 14.9456H218.313L217.965 16.6422ZM226.767 20.4301C226.389 21.2324 226.03 21.7001 225.819 21.9176C225.607 22.1328 225.188 22.6333 224.18 22.5955L224.267 21.9833C225.115 21.7216 225.574 20.5431 225.836 20.0213L225.524 16.1781L226.181 16.1693H226.731L226.791 18.5801L227.823 16.1693H228.868L226.767 20.4301ZM223.844 16.4598L223.429 16.7452C222.995 16.4057 222.599 16.1957 221.835 16.5503C220.793 17.0332 219.923 20.737 222.79 19.5171L222.954 19.7108L224.082 19.7397L224.823 16.3743L223.844 16.4598ZM223.202 18.2996C223.021 18.8342 222.617 19.1875 222.3 19.0869C221.983 18.9888 221.869 18.4732 222.053 17.9374C222.234 17.4016 222.642 17.0495 222.956 17.1501C223.273 17.2483 223.387 17.7638 223.202 18.2996Z" fill="white"/>
</svg>
