<svg width="40" height="40" viewBox="0 0 40 40" fill="none" xmlns="http://www.w3.org/2000/svg">
<g clip-path="url(#clip0_2103_5994)">
<path d="M11.6667 13.3333V9.99996C11.6667 7.78982 12.5446 5.67021 14.1074 4.1074C15.6702 2.5446 17.7899 1.66663 20 1.66663C22.2101 1.66663 24.3298 2.5446 25.8926 4.1074C27.4554 5.67021 28.3333 7.78982 28.3333 9.99996V13.3333H33.3333C33.7754 13.3333 34.1993 13.5089 34.5118 13.8214C34.8244 14.134 35 14.5579 35 15V35C35 35.442 34.8244 35.8659 34.5118 36.1785C34.1993 36.491 33.7754 36.6666 33.3333 36.6666H6.66667C6.22464 36.6666 5.80072 36.491 5.48816 36.1785C5.17559 35.8659 5 35.442 5 35V15C5 14.5579 5.17559 14.134 5.48816 13.8214C5.80072 13.5089 6.22464 13.3333 6.66667 13.3333H11.6667ZM11.6667 16.6666H8.33333V33.3333H31.6667V16.6666H28.3333V20H25V16.6666H15V20H11.6667V16.6666ZM15 13.3333H25V9.99996C25 8.67388 24.4732 7.40211 23.5355 6.46443C22.5979 5.52674 21.3261 4.99996 20 4.99996C18.6739 4.99996 17.4021 5.52674 16.4645 6.46443C15.5268 7.40211 15 8.67388 15 9.99996V13.3333Z" fill="black"/>
</g>
<defs>
<clipPath id="clip0_2103_5994">
<rect width="40" height="40" fill="white"/>
</clipPath>
</defs>
</svg>
