<svg width="40" height="40" viewBox="0 0 40 40" fill="none" xmlns="http://www.w3.org/2000/svg">
<g clip-path="url(#clip0_2103_5967)">
<path d="M10.284 30C10.6283 29.0242 11.2669 28.1791 12.1117 27.5814C12.9564 26.9836 13.9658 26.6626 15.0007 26.6626C16.0355 26.6626 17.0449 26.9836 17.8897 27.5814C18.7344 28.1791 19.373 29.0242 19.7173 30H36.6673V33.3334H19.7173C19.373 34.3093 18.7344 35.1543 17.8897 35.7521C17.0449 36.3498 16.0355 36.6708 15.0007 36.6708C13.9658 36.6708 12.9564 36.3498 12.1117 35.7521C11.2669 35.1543 10.6283 34.3093 10.284 33.3334H3.33398V30H10.284ZM20.284 18.3334C20.6283 17.3575 21.2669 16.5124 22.1117 15.9147C22.9564 15.3169 23.9658 14.996 25.0007 14.996C26.0355 14.996 27.0449 15.3169 27.8897 15.9147C28.7344 16.5124 29.373 17.3575 29.7173 18.3334H36.6673V21.6667H29.7173C29.373 22.6426 28.7344 23.4876 27.8897 24.0854C27.0449 24.6831 26.0355 25.0041 25.0007 25.0041C23.9658 25.0041 22.9564 24.6831 22.1117 24.0854C21.2669 23.4876 20.6283 22.6426 20.284 21.6667H3.33398V18.3334H20.284ZM10.284 6.6667C10.6283 5.69081 11.2669 4.84576 12.1117 4.24802C12.9564 3.65028 13.9658 3.32928 15.0007 3.32928C16.0355 3.32928 17.0449 3.65028 17.8897 4.24802C18.7344 4.84576 19.373 5.69081 19.7173 6.6667H36.6673V10H19.7173C19.373 10.9759 18.7344 11.821 17.8897 12.4187C17.0449 13.0165 16.0355 13.3375 15.0007 13.3375C13.9658 13.3375 12.9564 13.0165 12.1117 12.4187C11.2669 11.821 10.6283 10.9759 10.284 10H3.33398V6.6667H10.284ZM15.0007 10C15.4427 10 15.8666 9.82444 16.1792 9.51188C16.4917 9.19932 16.6673 8.7754 16.6673 8.33337C16.6673 7.89134 16.4917 7.46742 16.1792 7.15486C15.8666 6.8423 15.4427 6.6667 15.0007 6.6667C14.5586 6.6667 14.1347 6.8423 13.8221 7.15486C13.5096 7.46742 13.334 7.89134 13.334 8.33337C13.334 8.7754 13.5096 9.19932 13.8221 9.51188C14.1347 9.82444 14.5586 10 15.0007 10ZM25.0007 21.6667C25.4427 21.6667 25.8666 21.4911 26.1792 21.1785C26.4917 20.866 26.6673 20.4421 26.6673 20C26.6673 19.558 26.4917 19.1341 26.1792 18.8215C25.8666 18.509 25.4427 18.3334 25.0007 18.3334C24.5586 18.3334 24.1347 18.509 23.8221 18.8215C23.5096 19.1341 23.334 19.558 23.334 20C23.334 20.4421 23.5096 20.866 23.8221 21.1785C24.1347 21.4911 24.5586 21.6667 25.0007 21.6667ZM15.0007 33.3334C15.4427 33.3334 15.8666 33.1578 16.1792 32.8452C16.4917 32.5327 16.6673 32.1087 16.6673 31.6667C16.6673 31.2247 16.4917 30.8008 16.1792 30.4882C15.8666 30.1756 15.4427 30 15.0007 30C14.5586 30 14.1347 30.1756 13.8221 30.4882C13.5096 30.8008 13.334 31.2247 13.334 31.6667C13.334 32.1087 13.5096 32.5327 13.8221 32.8452C14.1347 33.1578 14.5586 33.3334 15.0007 33.3334Z" fill="black"/>
</g>
<defs>
<clipPath id="clip0_2103_5967">
<rect width="40" height="40" fill="white"/>
</clipPath>
</defs>
</svg>
