<svg width="40" height="40" viewBox="0 0 40 40" fill="none" xmlns="http://www.w3.org/2000/svg">
<g clip-path="url(#clip0_2103_5949)">
<path d="M20.0023 7.5483C23.9173 4.0333 29.9673 4.14997 33.739 7.9283C37.509 11.7083 37.639 17.7283 34.1323 21.655L19.999 35.8083L5.86899 21.655C2.36233 17.7283 2.49399 11.6983 6.26233 7.9283C10.0373 4.15497 16.0757 4.0283 20.0023 7.5483V7.5483ZM31.379 10.2833C28.879 7.77997 24.8457 7.6783 22.229 10.0283L20.004 12.025L17.7773 10.03C15.1523 7.67663 11.1273 7.77997 8.62066 10.2866C6.13733 12.77 6.01233 16.745 8.30066 19.3716L20.0007 31.09L31.7007 19.3733C33.9907 16.745 33.8657 12.775 31.379 10.2833V10.2833Z" fill="black"/>
</g>
<defs>
<clipPath id="clip0_2103_5949">
<rect width="40" height="40" fill="white"/>
</clipPath>
</defs>
</svg>
