<svg width="40" height="40" viewBox="0 0 40 40" fill="none" xmlns="http://www.w3.org/2000/svg">
<g clip-path="url(#clip0_2103_5985)">
<path d="M14.941 30C14.7429 31.3905 14.0497 32.6628 12.9888 33.5833C11.9279 34.5037 10.5705 35.0105 9.16601 35.0105C7.76148 35.0105 6.40411 34.5037 5.34322 33.5833C4.28232 32.6628 3.58915 31.3905 3.39102 30H1.66602V10C1.66602 9.55801 1.84161 9.13409 2.15417 8.82153C2.46673 8.50897 2.89065 8.33337 3.33268 8.33337H26.666C27.108 8.33337 27.532 8.50897 27.8445 8.82153C28.1571 9.13409 28.3327 9.55801 28.3327 10V13.3334H33.3327L38.3327 20.0934V30H34.941C34.7429 31.3905 34.0497 32.6628 32.9888 33.5833C31.9279 34.5037 30.5705 35.0105 29.166 35.0105C27.7615 35.0105 26.4041 34.5037 25.3432 33.5833C24.2823 32.6628 23.5891 31.3905 23.391 30H14.941ZM24.9993 11.6667H4.99935V25.0834C5.65695 24.412 6.46702 23.9095 7.3606 23.6186C8.25419 23.3276 9.20484 23.2569 10.1316 23.4124C11.0584 23.5678 11.934 23.9449 12.6837 24.5115C13.4334 25.0782 14.0352 25.8175 14.4377 26.6667H23.8943C24.1743 26.0784 24.5493 25.5434 24.9993 25.0834V11.6667ZM28.3327 21.6667H34.9993V21.1917L31.6527 16.6667H28.3327V21.6667ZM29.166 31.6667C29.8293 31.6667 30.4654 31.4032 30.9344 30.9342C31.4034 30.4652 31.6668 29.8291 31.6668 29.1659C31.6668 28.5026 31.4034 27.8665 30.9344 27.3975C30.4654 26.9285 29.8293 26.665 29.166 26.665C28.5028 26.665 27.8667 26.9285 27.3977 27.3975C26.9287 27.8665 26.6652 28.5026 26.6652 29.1659C26.6652 29.8291 26.9287 30.4652 27.3977 30.9342C27.8667 31.4032 28.5028 31.6667 29.166 31.6667ZM11.666 29.1667C11.666 28.8384 11.6014 28.5133 11.4757 28.21C11.3501 27.9067 11.1659 27.6311 10.9338 27.3989C10.7016 27.1668 10.426 26.9826 10.1227 26.857C9.81941 26.7314 9.49432 26.6667 9.16601 26.6667C8.83771 26.6667 8.51262 26.7314 8.20931 26.857C7.90599 26.9826 7.63039 27.1668 7.39825 27.3989C7.1661 27.6311 6.98195 27.9067 6.85632 28.21C6.73068 28.5133 6.66602 28.8384 6.66602 29.1667C6.66602 29.8298 6.92941 30.4656 7.39825 30.9345C7.86709 31.4033 8.50297 31.6667 9.16601 31.6667C9.82906 31.6667 10.4649 31.4033 10.9338 30.9345C11.4026 30.4656 11.666 29.8298 11.666 29.1667Z" fill="black"/>
</g>
<defs>
<clipPath id="clip0_2103_5985">
<rect width="40" height="40" fill="white"/>
</clipPath>
</defs>
</svg>
